<svg width="24" height="24" viewBox="0 0 24 24" fill="none" xmlns="http://www.w3.org/2000/svg">
<path d="M4.0249 17L0.399902 13.475L1.3999 12.45C2.8499 10.9667 4.50424 9.85433 6.3629 9.113C8.22157 8.37167 10.1006 8.00067 11.9999 8C13.8992 7.99933 15.7742 8.37033 17.6249 9.113C19.4756 9.85567 21.1339 10.968 22.5999 12.45L23.5999 13.475L19.9749 17L15.9999 14V10.65C15.3666 10.45 14.7166 10.2917 14.0499 10.175C13.3832 10.0583 12.6999 10 11.9999 10C11.2999 10 10.6166 10.0583 9.9499 10.175C9.28324 10.2917 8.63324 10.45 7.9999 10.65V14L4.0249 17Z" fill="white"/>
</svg>
